<svg xmlns="http://www.w3.org/2000/svg" version="1.1" xmlns:xlink="http://www.w3.org/1999/xlink" viewBox="0 0 200 200"><rect width="200" height="200" fill="url('#gradient')"></rect><defs><linearGradient id="gradient" gradientTransform="rotate(360 0.5 0.5)"><stop offset="0%" stop-color="#fff5ec"></stop><stop offset="100%" stop-color="#fff5ec"></stop></linearGradient></defs><g><g fill="#00674b" transform="matrix(2.657324510185546,0,0,2.657324510185546,-1.6660734595098106,118.89783451092202)" stroke="#00674b" stroke-width="0.35"><path d="M8.41-3.78L8.41-3.78Q8.41-4.53 7.88-4.95Q7.34-5.37 6.01-5.82Q4.67-6.27 3.82-6.69L3.82-6.69Q1.05-8.05 1.05-10.42L1.05-10.42Q1.05-11.60 1.74-12.50Q2.43-13.41 3.69-13.91Q4.95-14.41 6.52-14.41L6.52-14.41Q8.06-14.41 9.27-13.87Q10.49-13.32 11.16-12.31Q11.84-11.30 11.84-10L11.84-10L8.42-10Q8.42-10.87 7.89-11.35Q7.35-11.83 6.45-11.83L6.45-11.83Q5.53-11.83 5.00-11.42Q4.46-11.02 4.46-10.39L4.46-10.39Q4.46-9.84 5.05-9.40Q5.63-8.96 7.11-8.48Q8.58-8.01 9.53-7.46L9.53-7.46Q11.84-6.13 11.84-3.80L11.84-3.80Q11.84-1.93 10.43-0.87Q9.02 0.20 6.57 0.20L6.57 0.20Q4.84 0.20 3.44-0.42Q2.04-1.04 1.33-2.12Q0.63-3.20 0.63-4.61L0.63-4.61L4.06-4.61Q4.06-3.47 4.65-2.92Q5.24-2.38 6.57-2.38L6.57-2.38Q7.42-2.38 7.92-2.75Q8.41-3.12 8.41-3.78ZM24.76-14.22L24.76-11.57L20.49-11.57L20.49 0L17.06 0L17.06-11.57L12.87-11.57L12.87-14.22L24.76-14.22ZM33.94 0L33.11-2.66L28.41-2.66L27.59 0L23.93 0L29.14-14.22L32.36-14.22L37.62 0L33.94 0ZM30.75-10.23L29.23-5.30L32.29-5.30L30.75-10.23ZM46.54-4.81L49.95-4.81Q49.88-3.33 49.15-2.19Q48.42-1.05 47.09-0.43Q45.77 0.20 44.07 0.20L44.07 0.20Q41.27 0.20 39.66-1.63Q38.05-3.46 38.05-6.79L38.05-6.79L38.05-7.49Q38.05-9.58 38.77-11.15Q39.50-12.71 40.87-13.57Q42.24-14.42 44.03-14.42L44.03-14.42Q46.62-14.42 48.19-13.06Q49.77-11.70 49.98-9.31L49.98-9.31L46.56-9.31Q46.52-10.61 45.91-11.17Q45.29-11.74 44.03-11.74L44.03-11.74Q42.75-11.74 42.16-10.78Q41.56-9.82 41.53-7.72L41.53-7.72L41.53-6.72Q41.53-4.44 42.10-3.47Q42.68-2.49 44.07-2.49L44.07-2.49Q45.25-2.49 45.88-3.05Q46.50-3.60 46.54-4.81L46.54-4.81ZM59.43 0L56.41-5.29L55-3.75L55 0L51.57 0L51.57-14.22L55-14.22L55-7.95L56.19-9.76L59.26-14.22L63.50-14.22L58.69-7.93L63.50 0L59.43 0ZM66.94-14.22L69.57-8.05L72.19-14.22L75.89-14.22L71.31-5.11L71.31 0L67.83 0L67.83-5.11L63.26-14.22L66.94-14.22Z"></path></g></g></svg>